<svg baseProfile="tiny" height="100%" version="1.2" viewBox="170,170,362,362" width="100%" xmlns="http://www.w3.org/2000/svg" xmlns:ev="http://www.w3.org/2001/xml-events" xmlns:xlink="http://www.w3.org/1999/xlink"><defs /><rect fill="#FF6B6B" height="40" rx="4" stroke="black" width="100" x="200" y="200" /><text fill="white" font-size="12" font-weight="bold" text-anchor="middle" x="250.0" y="224.0">2m</text><rect fill="#6BCB77" height="40" rx="4" stroke="black" width="100" x="304" y="200" /><text fill="white" font-size="12" font-weight="bold" text-anchor="middle" x="354.0" y="224.0">2m</text><rect fill="#888" height="40" rx="4" stroke="black" width="50" x="408" y="200" /><text fill="white" font-size="12" font-weight="bold" text-anchor="middle" x="433.0" y="224.0">1m</text><rect fill="#888" height="50" rx="4" stroke="black" width="40" x="462" y="200" /><text fill="white" font-size="12" font-weight="bold" text-anchor="middle" x="482.0" y="229.0">1m</text><rect fill="#6BCB77" height="150" rx="4" stroke="black" width="40" x="462" y="254" /><text fill="white" font-size="12" font-weight="bold" text-anchor="middle" x="482.0" y="333.0">3m</text><rect fill="#888" height="50" rx="4" stroke="black" width="40" x="462" y="408" /><text fill="white" font-size="12" font-weight="bold" text-anchor="middle" x="482.0" y="437.0">1m</text><rect fill="#888" height="40" rx="4" stroke="black" width="50" x="412" y="462" /><text fill="white" font-size="12" font-weight="bold" text-anchor="middle" x="437.0" y="486.0">1m</text><rect fill="#4D96FF" height="40" rx="4" stroke="black" width="100" x="308" y="462" /><text fill="white" font-size="12" font-weight="bold" text-anchor="middle" x="358.0" y="486.0">2m</text><rect fill="#FFD93D" height="40" rx="4" stroke="black" width="100" x="204" y="462" /><text fill="white" font-size="12" font-weight="bold" text-anchor="middle" x="254.0" y="486.0">2m</text></svg>